<svg id="Layer_1" data-name="Layer 1" xmlns="http://www.w3.org/2000/svg" viewBox="0 0 175.39 190"><defs><style>.cls-1{fill:#fff;stroke:#000;stroke-miterlimit:10;stroke-width:0.6px;}</style></defs><title>7900096_hammer_mining_cryptocurrency_btc_sculpting_icon</title><path d="M183.78,122.14a.32.32,0,0,0,.08-.45l0,0c.08-.22.92-15.8.78-17.28,0-.41-19.87-3.64-20-3.64-1.18-2.8-5.15-13-5.26-13.06,7.23-12.28,9.77-31.72,3.5-47.18-4.67-11.5-14.52-19.8-21.84-22.15a6.29,6.29,0,0,0-1.26-.2c-13.93,0-17.56.81-17.56.84-22,2.67-33.09,41.53-14.69,66.51-1,1.48-13.62,19.55-14.77,21.23-.28,0-10.64,4.58-11.38,5.26a3.06,3.06,0,0,0-1,2.13c-.08,1,.92,16.22,1.06,16.84,0,.19-.89-.15,13.68,2.63v0c5,31.38,10.54,50.15,11.49,51.38,6.54,8.33,22.06,10,32.69,9.7,16.3-.41,19.92-5.64,19.74-6,.5-1.76,10.71-52.55,11.33-56.74C172.63,130.42,181.55,123.92,183.78,122.14Zm-.34-.47c-4,3.08-29.09,20.56-31.32,22.09,0-.36.39-16.5.36-17.06,4.22-2.71,29.45-20.19,31.6-21.79,0,1.29-.67,16.47-.64,16.75Zm-42.85-103c4.66,1.39,9.3,5.1,12.81,8.5,15.77,15.64,15.63,42,5.54,60.8-4.2,2.74-15,8.81-16.05,9.37A52.79,52.79,0,0,0,147,32c-4.86-6.92-11.53-12.15-20-13.09C127.77,18.89,139.34,18.72,140.6,18.63Zm-19.47,1c7.12-1.33,15.82,1.29,23,9.68s11.63,20.24,11.63,32.89a52.66,52.66,0,0,1-13.82,35.32c-.36-.34-10.49-5.34-11.21-5.79a5.81,5.81,0,0,0-2.12-.84c-.82-.11-7.33.33-8.53.53.33-.32-6.79-13-6.9-13.11a.28.28,0,0,0-.5-.17c-1.64,2.29-3.22,4.61-4.84,6.94-18.9-28.6-4.93-62.19,13.34-65.44Zm-8.19,59c0,.11,6.78,13,6.94,13.06.84.17,8.61-.28,8.95-.22-.06.36.5,10.24.81,12.36,0,.19.34.14.34-.06.06-2.12-.73-12.14-.73-12.17.31.11,9.73,4.78,10.07,5,.08.73.73,4.36.9,4.75.08.2.39.2.39-.06,0-.42-.64-3.78-.78-4.42.08.06,1.65,1,1.93,1.09.08.11.5,0,.56,0,2.32-1.09,16.75-9.62,16.89-9.7,1.87,5.15,7.27,18,7.89,19.41a10.41,10.41,0,0,1-6.57,2.88c0-.16-1.19-3.28-1.59-4.17a.21.21,0,0,0-.39.17c.25.7,1.54,3.92,1.65,4a17.82,17.82,0,0,1-8.08-1.57c-.28-.7-1.48-3.89-1.71-4.14,0-.06-.11,0-.11.06,0,.36,1.32,4.11,1.34,4.22l-20,9.15a97.07,97.07,0,0,0,0-10.29c0-.22-.36-.17-.39.06,0,.89-.06,8.75-.17,10.43a147.12,147.12,0,0,1-17.26-3,2,2,0,0,1-1-.81,2.63,2.63,0,0,1-.11-1.73c.42-2.43,2.21-12.79,2.6-15.52,0-.17-.25-.2-.28,0-.59,2.52-1.71,9-1.82,9.65,0,0-7.44,2.13-8.84,2.54.08-.14,5.37-7.78,5.87-8.59.11-.17-.14-.36-.28-.22-.67.67-6.15,8.59-6.18,8.87L92,108.41C94.79,104.63,111.43,80.83,112.94,78.68ZM83.49,111.35c1-.45,7-3.11,8.95-4.11-.43.68-1,1.34-.87,1.51s12.35,1.58,12.44,1.54c1.57-.47,8.81-2.63,9.06-2.82-1,5.66-1.61,7-.36,8.08.75.63,15.72,3.36,18.54,3.58.1,0,11-4.59,20.7-9.51.2.08,6.8,3,12,.84a9.46,9.46,0,0,0,3.55-2.32c.4-.41.36.31-2.6-6.82.22,0,17.59,3.08,18.88,3.16-3.94,2.91-31.34,21.18-31.6,21.37-4.67-.64-70.51-12.58-71-12.7C81.64,112.51,81.44,112.29,83.49,111.35ZM82,130.73c0-.45-.91-14.46-1-15.47a6.24,6.24,0,0,1,.08-1.82c4.53,1.06,70.34,12.86,70.9,12.95,0,0-.36,17.09-.25,17.59C150.73,143.68,82.49,130.81,82,130.73Zm76.75,57.78c-1,1.65-6.6,5.43-17.2,5.62-10,.48-21.09-.05-29.73-5.45-.53-.34-4.33-2.29-5.62-6.21-4.7-14.26-10.07-46.51-10.49-48.78,20.42,3.89,55.88,10.74,56.3,10.79.14,0,16.3-10.93,18-12.16C169.32,135.85,158.7,188.48,158.7,188.51Z" transform="translate(-11.6 -5)"/><path d="M186.61,191.28c-1.55-1.85-8.29-1.58-10.26.5a1.36,1.36,0,0,0-.14,1.87,3.82,3.82,0,0,0,2.63,1.12c.53.06,4,.56,5.87-.14a3.93,3.93,0,0,0,2-1.43A1.56,1.56,0,0,0,186.61,191.28Zm-.22,1.68c-1.8,3.13-12.13,1.61-9.62-.9,1.77-1.77,7.54-2,9.15-.84a1.28,1.28,0,0,1,.48,1.74Z" transform="translate(-11.6 -5)"/><path d="M89.76,190.55c-1.55,1.81,3.26,2.77,5.48,1.9.87-.31,2-1.27,1.23-2.24C95.6,189.08,91.09,189,89.76,190.55Zm6.29,1c-.78,1-3.17,1.14-4.53.73-.59-.18-2.17-.69-1.26-1.45C92.32,189.06,97.45,189.71,96.05,191.5Z" transform="translate(-11.6 -5)"/><path d="M87.94,184.62c-1.14-1.09-6.46-1-7.92.42a.85.85,0,0,0-.14,1.19l.12.12c2,1,6.94,1.41,8.14-.39A1,1,0,0,0,87.94,184.62Zm-.22,1.26c-1.28,1.46-5.35,1.08-7.16.28-.52-.35-.46-.58,0-.95,1.43-1,5.35-1.21,6.77-.53C87.83,185,88.13,185.4,87.72,185.88Z" transform="translate(-11.6 -5)"/><path d="M45.74,46.38c.81-.7,1.26-.22,1.29-.22a.17.17,0,0,0,.14-.25c-.5-.87-1.57.22-1.62.36S45.68,46.46,45.74,46.38Z" transform="translate(-11.6 -5)"/><path d="M46.33,47.52s-.06.76.11,1,.17,0,.22,0a2.67,2.67,0,0,0,0-1,.15.15,0,1,0-.31,0Z" transform="translate(-11.6 -5)"/><path d="M51,47.41c0,.84-.06.8.08,1a.18.18,0,0,0,.28-.14c0-.14-.11-.76-.11-.84S51,47.26,51,47.41Z" transform="translate(-11.6 -5)"/><path d="M50.94,46.18s.59-.14.76.36c0,.08.14.08.22.06.28-.09.1-.52-.14-.62C50.88,45.52,50.33,46.18,50.94,46.18Z" transform="translate(-11.6 -5)"/><path d="M50.38,49.62c-.24-.83-.51-1.63-.81-2.43a.12.12,0,0,0-.22.06c.48,2.3.8,2.64.59,2.8s-.53-.2-.78-.11a.16.16,0,0,0-.11.19h0C49.23,50.71,50.69,50.71,50.38,49.62Z" transform="translate(-11.6 -5)"/><path d="M84.51,96.13A17.31,17.31,0,0,0,87.84,91c.06,0,.11-.5,0-.56a29.91,29.91,0,0,0-1.28-2.88c.25,0,3-1.06,3.13-1.15,2.52,3.38,5.76,7.8,6,7.94s2.4,1.31,2.6,1a13.73,13.73,0,0,0-.78-2.52c-.42-.61-5.54-7.16-6.38-8.36a1.12,1.12,0,0,0,.36-1.2c-.08-.2-.5-.42-.5-.42.19-.51-.1-1.09-.56-1.09.22-.52-.17-1.07-1-1,.27-1.09-.57-1.18-1.37-.64-.45-.59-1.85-2.54-1.85-2.54L88,76.33l-.87-1.12-5.45,3.86.78,1.12S84.12,79,84.15,79a21,21,0,0,1,1.93,2.43,7,7,0,0,0-2.38,2.4s-.42-.2-.5-.14c-3.41,1.15-11.13,3.8-11.16,3.83-.5-1.23-4.61-11.38-6.88-14.54-4.36-6.11-9.85-10.77-17.4-11.44,0-.08-.08-.84-.11-1.12a9.49,9.49,0,0,0,2.8-.11c2-.35,2.5-1.26,2.35-3a14.07,14.07,0,0,0-1.52-5.68c.17-1.2.36-6.07.36-6.18,4.32-.8,4.59-5.35,1.06-5.15a2.57,2.57,0,0,0-3.1-3,1.51,1.51,0,0,0-1.51-1.31,2.24,2.24,0,0,0-1.82,1.06,2.76,2.76,0,0,0-3.8-1.76,2,2,0,0,0-1.15,2.21,2.44,2.44,0,0,0-2.32.17,1.66,1.66,0,0,0-.45,2.18c-.92-.72-2.54.32-1.87,2.15a2.34,2.34,0,0,0-2.54.87c-1.12,1.43-1.06,4.14-.62,5.79a7.47,7.47,0,0,0,4.55,5.12,67.13,67.13,0,0,0,0,8.22,36,36,0,0,0-25.7,26c-1.17,4.69-1.53,10.14,2.07,13.4,2.61,2.39,5.85,2.75,9.17,3-.59,2.35-1,5.15.73,7.1a4.36,4.36,0,0,0,1.68,1.17c-.4,42.64,3.35,72.24,3.58,72.35a2.33,2.33,0,0,0,1.09.22,15.55,15.55,0,0,0-1.57,1.48c-1.93,2.34-1.11,4.27.34,4.45,2.17.26,5.92-2.6,6.74-5.79.7,0,4.61-.5,4.84-.62s4-27.69,4.28-31c0-1.29,1.85-23.32,2.15-25,0-.17.28-.11.28,0-.14,2-1.79,18.38-2.15,24.61,0,.11,7.1,30.9,7.16,30.93a19.69,19.69,0,0,0,3.86,0c1.82,3.64,7.54,6,8.45,3.5.53-1.47-.57-2.71-1.06-3.22a11.5,11.5,0,0,0-2.21-1.65,3.43,3.43,0,0,0,.73-.34c.23-.17.5-19.84.48-28.39-.08-25.72-1.57-42.62-1.57-43.77A6.48,6.48,0,0,0,63,108.78c1.12-2.1,1.15-5.45.67-7.94A6.48,6.48,0,0,0,67.79,103C71.68,103.63,79.9,101.11,84.51,96.13Zm6.6-12.64c.11.28,0,.81-1.09,1.32-.57.25-1-.13-.84-.36s1.12-.56,1.54-1.12c.17,0,.34,0,.39.17Zm-.78-1.26a.22.22,0,0,1,.25.14c.28.67-.73,1.23-1,1.4-.74.41-1.17-.33-.89-.42a6.35,6.35,0,0,0,1.68-1.12Zm-.78-1c.53-.08.85.39.08,1.06-.36.3-1.46.79-1.71.42C87.39,82.15,89.35,81.23,89.54,81.2Zm-1.9-.28a1.94,1.94,0,0,1,1.26-.73c.34,0,.22.5.2.61a2,2,0,0,1-1.62,1c-.42-.2,0-.67.16-.84Zm-1.37.89c.28.36,2,2.63,3.19,4.28-.08,0-2.8,1.09-3,1.18a24.51,24.51,0,0,0-2.52-3.22c.19-.25,1.54-2.07,2.38-2.24Zm-40-28.25c0-.11.28-.11.31-.08,1,1.57,2.4.39,2.52.45a.38.38,0,0,1,.11.31C49.27,54.71,46.91,56.26,46.31,53.56Zm-3.94-8.75c.22-.42.31-.67.78-.62a11,11,0,0,1,1.51.56,16.91,16.91,0,0,0,6.63.76c0,.11-.25,4.87-.36,6.1-.67,1-2-.08-3-.08a8.21,8.21,0,0,0-2.18.59,3.06,3.06,0,0,1-2.8-.5C41.75,50.58,41,47.45,42.36,44.81Zm-5.9,6.57c-.08-1,.53-2.1,1.59-1.15.33.31,4,7.92,4.7,8.64a6,6,0,0,0,3.75,1.4c.28,0,.53.08.81.11,0,2.13,1.22,4.47-4.5,4.47a4.44,4.44,0,0,1-4.25-2.24s-.08-6.07,0-9a.26.26,0,0,0-.2-.25,2.38,2.38,0,0,1-1.87-2ZM32.6,189.63c-.89.65-3.75,2.1-4.19.34,1.2.84,4.28-.76,5.23-1.51a9.47,9.47,0,0,0,1.09-1,8,8,0,0,1-2.13,2.18Zm-2.91.22c-.48,0-1.15.08-1.29-.5-.2-.84.48-1.73,1-2.35a24.24,24.24,0,0,1,1.76-1.74c.39,0,4.47.14,4.59.14-1.41,2.12-3.48,4.24-6,4.44Zm28.58-3.91a12.13,12.13,0,0,0,4,1.87,3.51,3.51,0,0,0,2.55-.28c-.56,2.52-6.12-.45-6.52-1.59Zm6.52.64c.14,1.2-1.87,1-2.6.78a9.74,9.74,0,0,1-5-3.1c.14,0,4.2-1.12,4.22-1.15.26.35,3.1,1.69,3.33,3.46ZM80.4,98.87c-2.93,1.93-7.92,3.88-11.33,3.83a6.82,6.82,0,0,1-5.45-2.35c-.28-2.32-.67-4.61-1.12-6.94a96.85,96.85,0,0,0-5.32-18.74.16.16,0,1,0-.31.08h0a115.37,115.37,0,0,1,6,24.25c.31,2.38.78,4.89.33,7.27-1.06,5.51-10.15,6.18-11.58,6.32a127.32,127.32,0,0,1-17.28.42,60.51,60.51,0,0,1-7.77-.7A4.22,4.22,0,0,1,24,110.06c-.86-2-.3-4,0-5.58,8.45,1.2,16.77-1.19,17.44-1.36s.82-.78.9-1.29c.14-1,.22-3.66.22-4h0a4.9,4.9,0,0,1,1-.31,24.7,24.7,0,0,0,.2,6.54c.15,1,1.06,1.26,1.48.56.23-.38.17-.22.17-6.6.17.28.28.67.64.7.78.08,1.31-1.62,1.43-2.27a2.84,2.84,0,0,0-2.15-3.16c0-1.65.2-3.3.14-4.92a23.56,23.56,0,0,0,3.13-.06c.84-.17.44-5.9.2-6.18s-1.37-.75-8.45-.39a1.16,1.16,0,0,0-1,.48,39,39,0,0,0-.22,4.92c0,1.18,1.17,1.13,2,1.15l2,.06c0,.84.17,4.61.25,4.95a4.35,4.35,0,0,0-1.09.28c-.11-.55-.07-.66-.25-.76a43.69,43.69,0,0,0-10.68-2.66c.25-.28,3.36-4,2.43-10.65,0-.17-.28-.17-.25,0A17.65,17.65,0,0,1,31.1,90.12a42.43,42.43,0,0,0-8.64-.2c-.11,0-.11.2,0,.17C33,89.86,38.51,92.33,42,93.33c.42,4,.11,8.95-.39,9.37a56,56,0,0,1-21.82.81,10.23,10.23,0,0,1-3.52-1.34c-4.42-2.62-4.78-7.64-3.75-12.64a35.5,35.5,0,0,1,24-26.6c.5-.17,1-.31,1.57-.47,1,2.49,3.13,3,5,3S47.8,65,47.8,62.76a6.73,6.73,0,0,0-.08-.78,21.22,21.22,0,0,1,11.94,5.54c6.16,5.5,8.8,12.9,11.89,20.56a.31.31,0,0,0,.39.18h0c.08,0,11.41-3.94,11.44-4,2,1.93,4,6.43,4,6.43A18.2,18.2,0,0,1,80.4,98.87ZM43.59,88.25l1.46,0c0,.78,0,4.53.08,4.89a11.75,11.75,0,0,0-1.43,0C43.76,92.8,43.62,89.08,43.59,88.25Zm2.35,5.68A2.45,2.45,0,0,1,47,96.33a3.87,3.87,0,0,1-.67,1.73c-.14.17-.22.2-.34,0-.29-.39-.21-.76-1-1.06a4.92,4.92,0,0,0-2.44.36,25.89,25.89,0,0,0-.2-3.61C43.11,93.75,44.68,93.15,45.94,93.92Zm-1.2,10.68c-.59-.11-.59-.7-.62-1a38.26,38.26,0,0,1-.31-6.18s.84-.22,1.26.11c0,0,.39,7.41-.34,7Z" transform="translate(-11.6 -5)"/><path d="M102,18.83c1.79-.15,1.59,2.41,1.62,2.63s.45.31.45,0,.06-2.61,2-2.66c.28,0,.17-.48-.11-.42-.59.11-1.88-.47-1.57-2.82,0-.25-.39-.31-.45-.06-.17,1.09-.5,2.57-2.1,2.88C101.56,18.44,101.67,18.86,102,18.83Zm2-1.68a2,2,0,0,0,1.09,1.51,2.53,2.53,0,0,0-1.15,1.15,2,2,0,0,0-1-1.29C103.74,18.3,103.91,17.4,104,17.15Z" transform="translate(-11.6 -5)"/><path d="M176.46,86.87c-1.57-.31-3.8.5-4.42-1.51-.5-1.57.17-3.27-.5-4.84-.08-.17-.42-.14-.45.06-.39,2.52.76,7.53-4.78,6.49-.17,0,0,.56.17.56,4.36.45,4.67,4.64,4.62,5.43,0,.31.45.31.48,0,.17-1.54-.59-5.9,4.9-5.71C176.65,87.27,176.71,86.93,176.46,86.87Zm-5.17,3.25a4.94,4.94,0,0,0-1-1.51,4,4,0,0,0-1.68-1.06c2.38-.48,2.77-3.22,2.82-4.47a6.06,6.06,0,0,0,.34,2.91,2.38,2.38,0,0,0,1.62,1.26C172,87.51,171.45,88.76,171.28,90.12Z" transform="translate(-11.6 -5)"/><path d="M89.11,12.31c.08,0,2.26-.17,3,.59,1,1,1.18,2.46,1.37,3.78,0,.22.39.2.42,0,.1-.62-.07-5.3,3.89-4.7.22,0,.31-.36.06-.42-.45-.08-1.82-.06-2-.14-.67-.24-2.1-1.23-2-6.21a.22.22,0,0,0-.45,0,10.7,10.7,0,0,1-.64,4.5,3.76,3.76,0,0,1-3.55,2.15.23.23,0,0,0,0,.45Zm4.47-4.08a4,4,0,0,0,2,3.58c-2,.67-1.87,3.1-1.93,3.47-.28-1.49-1.09-3.15-2.57-3.33A4.8,4.8,0,0,0,93.59,8.23Z" transform="translate(-11.6 -5)"/><path class="cls-1" d="M116.59,61.69l2.55-5.18,2.16-4.58s2.5-4.29,2.61-4.59,1-1.77-.24-2.52-2.61-1.49-3.47.6a44.35,44.35,0,0,0-2,4.93,32,32,0,0,1-1.78,4s-2.64,4.12-2.91,6.89a1.85,1.85,0,0,0,1,1.3,1.48,1.48,0,0,0,1.54,0A1,1,0,0,0,116.59,61.69Z" transform="translate(-11.6 -5)"/><path class="cls-1" d="M120.78,68.41l2.55-5.18,2.16-4.58s2.5-4.29,2.61-4.59,1-1.77-.24-2.52-2.61-1.49-3.47.6a44.35,44.35,0,0,0-2,4.93,32,32,0,0,1-1.78,4S118,65.22,117.7,68a1.85,1.85,0,0,0,1,1.3,1.48,1.48,0,0,0,1.54,0A1,1,0,0,0,120.78,68.41Z" transform="translate(-11.6 -5)"/><path class="cls-1" d="M130.18,64.14,132.73,59l2.16-4.58s2.5-4.29,2.61-4.59,1-1.77-.24-2.52-2.61-1.49-3.47.6a44.35,44.35,0,0,0-2,4.93,32,32,0,0,1-1.78,4s-2.64,4.12-2.91,6.89a1.85,1.85,0,0,0,1,1.3,1.48,1.48,0,0,0,1.54,0A1,1,0,0,0,130.18,64.14Z" transform="translate(-11.6 -5)"/><path class="cls-1" d="M134.59,70.29l2.55-5.18,2.16-4.58s2.5-4.29,2.61-4.59,1-1.77-.24-2.52-2.61-1.49-3.47.6a44.35,44.35,0,0,0-2,4.93,32,32,0,0,1-1.78,4s-2.64,4.12-2.91,6.89a1.85,1.85,0,0,0,1,1.3,1.48,1.48,0,0,0,1.54,0A1,1,0,0,0,134.59,70.29Z" transform="translate(-11.6 -5)"/></svg>