<?xml version="1.0" ?><svg viewBox="0 0 200 200" xmlns="http://www.w3.org/2000/svg"><defs><style>.a{fill:#020203;}</style></defs><title/><path class="a" d="M47.494,38.535a8.006,8.006,0,0,1,5.6-4.912c-.5-1.685-1.9-2.508-3.887-2.482a4.119,4.119,0,0,0-4.222,4A3.374,3.374,0,0,0,47.494,38.535Z"/><path class="a" d="M60.872,53.637a2.989,2.989,0,0,0,2.2.381.228.228,0,0,0-.107-.444,2.53,2.53,0,0,1-1.849-.322,2,2,0,0,1-.9-1.351.229.229,0,0,0-.268-.178.226.226,0,0,0-.178.267A2.461,2.461,0,0,0,60.872,53.637Z"/><path class="a" d="M35.742,43.411c1.319-.441,4.772-.133,5.848.944a.228.228,0,0,0,.323-.323c-1.2-1.2-4.867-1.537-6.314-1.053A.228.228,0,0,0,35.742,43.411Z"/><path class="a" d="M39.62,35.159a13.462,13.462,0,0,1,3.573.979.229.229,0,0,0,.2-.409,11.568,11.568,0,0,0-3.122-.908l-.566-.109a.232.232,0,0,0-.267.178A.227.227,0,0,0,39.62,35.159Z"/><path class="a" d="M33.674,55.766c.449,0,5.8-3.8,7.642-3.189a.228.228,0,0,0,.143-.432c-1.9-.636-6.168,2.334-7.887,3.189A.228.228,0,0,0,33.674,55.766Z"/><path class="a" d="M72.074,41.6a3.726,3.726,0,0,1,1.531-1.1l.2-.1A.228.228,0,0,0,73.6,40a4.59,4.59,0,0,0-1.9,1.348A.228.228,0,0,0,72.074,41.6Z"/><path class="a" d="M12.523,99.8C11.06,98.338,10,97.709,9.38,97.947c-.361.137-.549.523-.559,1.146-.16,9.7,7.4,13.07,10.147,12.919.522-.029.726-.105,1.51-.8,6.735-5.937,9.028-10.647,6.816-14-.638-.967-1.334-1.368-2.062-1.191-2.89.695-5.1,10.645-5.59,13.855-1.111-2.791-4.4-7.212-6.647-9.595-.008-2.3-1.738-17.418-3.264-30.767C7.128,46.754,7.835,51.2,6.722,43.88A84.086,84.086,0,0,1,5.456,31.34a.228.228,0,1,0-.456,0c0,6.922,1.693,13.692,2.313,20.529C7.545,54.41,12.337,96.308,12.523,99.8ZM20.111,109.8c.576-3.868,2.847-12.764,5.228-13.337.527-.127,1.054.21,1.575,1,2.789,4.228-3.135,10.242-6.949,13.593C19.953,110.922,20.091,109.937,20.111,109.8Zm-.611,1.611c-.063.133-.681.275-1.817.006-3.185-.754-8.539-4.2-8.406-12.319.005-.337.06-.748.4-.748C11.887,98.352,20.276,109.785,19.5,111.413Z"/><path class="a" d="M16.627,22.707a.227.227,0,0,0-.278-.36c-1.942,1.5-8.378.594-10.382-.755a.23.23,0,0,0-.316.062.227.227,0,0,0,.061.316C7.875,23.425,14.529,24.324,16.627,22.707Z"/><path class="a" d="M8.685,9.7c2.647.683,6.449,1.657,8.627-.021a.226.226,0,0,0,.04-.319c-.493-.64-.606,2.1-8.289-.031L8.8,9.261c-.55-.142-2.014-.52-2.167-.963a.228.228,0,0,0-.43.151C6.417,9.068,7.6,9.421,8.685,9.7Z"/><path class="a" d="M16.277,82.846c1.843,0,3.54-.141,3.723-.465.159-.281-.228-.5-.366-.263-.4.273-5.152.456-7.511-.007a.228.228,0,0,0-.089.447A26.242,26.242,0,0,0,16.277,82.846Z"/><path class="a" d="M84.675,110.842c5.135-4.02,12.914-10.16,13.438-10.369a.228.228,0,0,0-.022-.455c-.466.023-8.783,6.568-13.7,10.467a.229.229,0,0,0-.037.321A.239.239,0,0,0,84.675,110.842Z"/><path class="a" d="M82.193,112.747c1.09.895,10.292,5.83,13.236,7.62a.228.228,0,1,0,.237-.39c-2.865-1.741-12.139-6.725-13.183-7.581A.228.228,0,0,0,82.193,112.747Z"/><path class="a" d="M194.723,140.71c-2.109.465-6.062-1.21-8.067-2.489-.306-.2-.625-.641-1.032-.9C185.617,137.235,175.114,7,175.381,6.026a.228.228,0,0,0-.436-.135c-.4,1.275,2.9,43.727,10.083,129.77a2.654,2.654,0,0,0-1.483-.359c-31.015-10.423-54.739-31.589-55.919-32.653.4-3.651,3.276-27.86,3.283-30.058,0,0,.083-.613-.257-.4-2.224,1.656-11.7,7.617-19.206,12.425-.092-.124-.421-.342-2.15-2.066C97.5,70.79,80.632,47.318,79.583,45.545a37.947,37.947,0,0,0-2.422-5.06c-4.912-8.323-12.944-12.771-23.873-13.219-5.457-.225-14.6,1.76-22.074,5.221a6.164,6.164,0,0,1-.87-.458,2.92,2.92,0,0,0-.783-.453,7.018,7.018,0,0,0-2.255-.031c-2.052-.06-4.517-.961-6.611-.655.294-1.364,2.327-4.943,3.78-5.074a3.567,3.567,0,0,1,1.042.162c1.332.33,1.839.4,3.238-1.308,1-1.22,1.366-1.527,3.508-1.909a6.173,6.173,0,0,0,2.68-.928.228.228,0,1,0-.269-.367,5.768,5.768,0,0,1-2.492.846c-2.29.413-2.728.785-3.779,2.069-1.257,1.537-1.586,1.449-2.776,1.155a3.8,3.8,0,0,0-1.194-.174c-1.277.116-2.684,2.078-3.51,3.719.062-2.188-.611-4.983-1.885-6.32.267-17.19.285-17.295.006-17.286-.247-.046-.271.251-.258.294.052.848-.33,25.165-.331,25.231a17.732,17.732,0,0,1-1.917-.116c-.451-.082-2.986-.484-3.823-.683-2.824-.671-5.029-2.91-7.264-4.664a.228.228,0,0,0-.282.359c2.25,1.762,4.488,4.046,7.441,4.749.637.152,3.607.67,4.257.729A3.738,3.738,0,0,0,14.154,33.2a6.191,6.191,0,0,0-.537,3.2,6.224,6.224,0,0,1-.533,3.218,3.675,3.675,0,0,0-.253,3.12c.159.341.275.557-.278,1.58a.226.226,0,1,0,.4.208c.986-1.913.062-1.618.077-2.931a9.4,9.4,0,0,1,.809-2.713c.542-1.777-.174-3.889.707-5.455a3.482,3.482,0,0,1,3.177-1.672c.152,0,.333,0,.716,0-.03,1.849-.057,3.6-.081,5.178-.782,2.441-1.885,5.183-1.662,7.756a5.71,5.71,0,0,0,.32,1.509c-2.543,6.269-.8,11.645-.517,14.95.023.278.044.439.055.529-.906.687-5.443,1.158-6.251.355a.227.227,0,1,0-.32.321,3.82,3.82,0,0,0,2.434.556c.843,0,3.778-.223,4.183-.751,2.217,22.6,14.221,46.126,34.78,68.116,4.07,4.353,21.05,18.365,44.879,25.424,30.2,8.944,60.578,3.58,88.753-18.194a21.791,21.791,0,0,1-1.208,2.868,5.153,5.153,0,0,0-.536,2.532c.133,1.762,1.53,3.762,1.125,5.378-.651,2.584-3.308,4.518-4,7.29a.225.225,0,0,0,.165.276.24.24,0,0,0,.276-.165c.673-2.679,3.318-4.556,4-7.288.464-1.844-.98-3.773-1.111-5.527-.127-1.668.894-2.8,1.519-4.644.221,2.652.362,4.343.4,4.792.362,4.536,2.007,49.678,2.911,51.4a.227.227,0,0,0,.4-.21c-.854-1.627-2.5-46.675-2.86-51.223-.034-.422-.158-1.924-.357-4.305a10.543,10.543,0,0,0,1.06,1.207c1.79,1.838,1.919,2.672,1.664,4.784-.215,1.776-.2,2.218,1.4,4.038a3.843,3.843,0,0,1,1.24,2.2c.3,1.036.646,2.207,1.39,2.4.018,0,.257,0,.276-.165a.228.228,0,0,0-.165-.277c-.492-.123-.809-1.208-1.063-2.08a4.207,4.207,0,0,0-1.336-2.374c-1.485-1.683-1.5-2-1.293-3.682.27-2.224.112-3.207-1.79-5.156a9.683,9.683,0,0,1-1.09-1.268,2.42,2.42,0,0,0,.38.314c1.984,1.266,6.1,3.07,8.41,2.548A.226.226,0,1,0,194.723,140.71ZM182.448,135.4a127.3,127.3,0,0,1-15.865,3.51c.587-.944,1.123-2.338.189-2.951-1.193-.79-6.324,2.485-7.757,3.75,0,0-2,.126-2.991.168-3.528-3.385-32.034-29.265-35.5-31.841.083-.056,6.778-4.884,6.859-4.973C130.017,105.407,152.9,125.217,182.448,135.4ZM165.978,139q-3.111.426-6.186.663c2.036-1.6,6.013-3.793,6.728-3.317S166.484,138.316,165.978,139ZM61.956,36.826a12.883,12.883,0,0,0-2.381-1.663c-.377-.278-.33-.851-.127-.917.5-.164.338.261,1.1.662a9.788,9.788,0,0,1,2.116,1.381A9.162,9.162,0,0,1,64.177,38.7c2.05.823,4.165.429,5.715,1.67.046.167.22,2.845.22,2.845l-2.33.261a.229.229,0,0,0-.2.24l.082,1.448-.624.1c-.016-.3-.034-.6-.053-.92a.235.235,0,0,0-.241-.213.228.228,0,0,0-.214.241c.021.342.039.657.055.965l-2.131.346c-.1-1.566-.072-1.534-.178-1.619a.221.221,0,0,0-.177-.049l-4.971.711a.228.228,0,0,0-.194.243l.093,1.236L54.14,44.949A6.138,6.138,0,0,1,56.8,42.491c2.666-1.236,5.4-2.467,6.312-3.469A4.4,4.4,0,0,0,61.956,36.826ZM68.778,47.09l-.544.091-.013-.232L70.6,43.618l.631-.071Zm2.489-2.78.107,2.343-1.967.331ZM68.18,46.232l-.132-2.326L70,43.687Zm-5.972-1.455a.075.075,0,0,0,.007-.029L63.26,44.6l-3.2,4.02-.391.07-.037-.508ZM59.583,47.5l-.177-2.344,2.184-.314ZM63.921,44.5l.223,3.406-3.406.594Zm-4.857,2.185c.184,2.448.146,2.36.259,2.446a47.451,47.451,0,0,0,5.1-.812.225.225,0,0,0,.188-.239l-.127-1.941,2.124-.345c.245,5.072-.269,5.313-2.349,5.525a.228.228,0,0,0,.023.455h.024c2.553-.259,3.008-1,2.757-6.052l.626-.1c.063,1.1.081,1.572.1,1.786.02.2.111.268.23.268.012,0,2.216-.37,2.216-.37.081,1.954-.367,5.776-1.074,6.716a10.408,10.408,0,0,1-3.275,2.582s-.143.08-.14.2c0,.21.039,1.58.039,1.643,0,.489.272.469.4.344a3.124,3.124,0,0,0,.048-.627,13.956,13.956,0,0,1,3.635.41c1.091,1.28,7.493,9.362,6.383,9.975-1.524.845-10.818,3.4-13.316,1.759C60.58,68.759,55.8,59.459,53.412,58.505c-.542-3.253-.8-8.638-.874-8.993a.215.215,0,0,0-.195-.16c-1.387-.556-1.236-3.748,1.141-3.472.106-.031.231-.228.4-.507.01-.014.062-.006.089,0ZM95.678,76.536c4.615,5.4,4.546,22.025,4.057,21.959a5.224,5.224,0,0,1-.6-1.373c-.227-.684-.375-1.068-.663-1.032-.261.025-.341.325-.535,1.049a4.529,4.529,0,0,1-.783,1.88c-.408-.049.115-3.367-.163-3.641-.5-.486-1.218.611-1.738,1.106-.012-.928.215-3.231.12-4.236-.156-1.668-1.353-1.993-2.443-2.69s-6.077-6.211-5.987-11.336C87,74.785,81.537,67.8,76.461,60.67,80.431,62.679,87.738,67.246,95.678,76.536Zm-19.186,34c.27-.007,3.988-.058,6.006,1.11.3.171.666-.2.488-.687a4.952,4.952,0,0,0-.6-.906c.158.01,1.873.227,2.066-.394.172-.587-1.139-1.3-1.167-1.322a3.146,3.146,0,0,0,1.162-.27c.314-.2.213-.5-.057-.758A8.31,8.31,0,0,0,82,105.933a1.968,1.968,0,0,0,.062-1.267c-.4-1-1.891.458-2.746.852a6.308,6.308,0,0,1-1.319-.7c1.706-1.439,14.538-9.413,16.932-11.456-.084,2.894-.294,3.538.068,3.677.287.111,1.46-1.191,1.612-1.3,0,.112-.341,3.811.394,3.793.764-.018,1.327-2.634,1.517-2.787.039.158,1.036,2.349,1.273,2.308a.412.412,0,0,0,.157.015c-.788,5.3-3.967,25.692-4.007,26-3.282-1.667-22.594-11.646-27.159-14.45C72.14,110.687,76.39,110.536,76.492,110.532ZM92.284,89.688c1.378,1.033,2.631.925,2.654,3.069-.014.009-.031.007-.043.019-1.408,1.517-15.759,10.385-17.288,11.78-1.053-.722-2.183-1.628-3.012-2.27C76.94,100.806,90.606,92.131,92.284,89.688Zm-38.708,1.7C75.452,103.159,73.9,102.306,74,102.4c1.286.989,3.837,3.093,5.142,3.538a.222.222,0,0,0,.233.065c.616-.243,1.259-.841,1.874-1.111.289-.127.538-.2.549.223a1.467,1.467,0,0,1-.28.775.228.228,0,0,0-.069.315c.044.067,2.816,1.055,2.72,1.5a7.608,7.608,0,0,1-2.437.193.227.227,0,0,0-.292.125.225.225,0,0,0,.122.3,8.728,8.728,0,0,0,1.056.057c.023.026,1.657.8,1.4,1.169-.084.283-3.383-.183-3.383-.183a.228.228,0,0,0-.071.45s1.031.164,1.383.2a.229.229,0,0,0,0,.169c.1.256.6.723.626.981-2.532-1.35-7.216-1.061-7.113-1.064-7.281.209-26.63.763-35.489-9.583-4.666-5.449-5.2-12.618-3.9-19.644A29.83,29.83,0,0,1,45.6,64.162c0,.035,0,.077.016.1C53.061,73.74,53.576,91.393,53.576,91.393ZM67.908,110.6c3.155,2.176,25.1,13.5,28.027,14.976a.764.764,0,0,0,.571-.034c.524-.5,9.366-6.914,17.193-12.571,1.534.986,5.479,3.63,10.317,6.908-7.242,2.606-14.459,11.21-15.13,12.886-19.508-6.414-37.756-16.912-44.255-22.32C65.762,110.522,66.859,110.57,67.908,110.6Zm46.189,2.084c2.173-1.571,4.253-3.072,6.04-4.363.913.628,4.856,4.075,9.832,8.513a7.933,7.933,0,0,0-5.695,2.671C119.52,116.285,115.653,113.691,114.1,112.685Zm10.255,7.55c.036-.012.127-.043.148-.027,10.981,7.446,26.164,17.886,28.431,19.757a136.334,136.334,0,0,1-43.617-7.057C109.839,131.589,116.86,122.811,124.352,120.235Zm.3-.471a7.47,7.47,0,0,1,5.523-2.472c.089,0,.28-.019.324.019,9.327,8.328,21.877,19.756,24.884,22.594-.6.021-1.2.041-1.8.053C152.922,139.087,136.326,127.676,124.655,119.764ZM116.88,81.69c5.847-3.724,11.388-7.254,13.56-8.783-.2,3.595-3.008,27.254-3.275,29.77-.57.421-29.777,21.562-30.767,22.378.337-2.131,4.889-31,5-33.2C101.448,91.73,109.864,86.159,116.88,81.69ZM100.941,91.827c-.02.448-.242,2.128-.662,5.01a62.584,62.584,0,0,0-.208-7.4,11.131,11.131,0,0,0,1.784,1.48C101.163,91.422,100.913,91.665,100.941,91.827Zm10.11-6.956c-4.924,3.151-7.494,4.833-8.8,5.759a8.889,8.889,0,0,1-2.125-1.869c-.084-.11-.132-.158-.135-.188-.476-4.58-1.582-9.547-3.963-12.334A71.615,71.615,0,0,0,81.9,63.371c.435-1.216.608-8.834-1.768-16.191C84.274,53.117,100.5,75.152,111.051,84.871Zm-92.026-61.4a9.907,9.907,0,0,1,1.162,7.355c-.189.146-.435.182-1.28.182C18.943,29.745,19.023,23.592,19.025,23.468ZM18.9,31.73a5.712,5.712,0,0,0,1.012-.125c-.506,1.489-1.044,3.558-1.069,3.658C18.857,34.143,18.877,32.956,18.9,31.73ZM18.814,37c.622-1.959.827-3.363,1.616-5.546,1.3-.612,4.824.49,6.861.547a7.528,7.528,0,0,1,2.126.009c.381.126.786.53,1.226.747-6.3,3.014-9.27,5.91-11.914,10.129C18.742,41.73,18.773,39.626,18.814,37Zm-.478,1.452c-.041,2.637-.067,4.543-.07,5.178a21.072,21.072,0,0,0-.96,1.895C16.787,43.272,17.542,40.832,18.336,38.452Zm.316,5.433a28.749,28.749,0,0,1,3.124-4.353c6.281-7.343,23.179-12.141,31.492-11.81,10.012.411,17.57,4.238,22.469,11.378,5.906,8.608,6.575,21.25,5.751,23.993-2.437-1.62-8.53-5.232-11.448-4.94a10.3,10.3,0,0,0-3.7-.441h-.115c0-.1-.013-.6-.014-.758A10.689,10.689,0,0,0,69.528,54.3c.846-1.121,1.252-5.187,1.163-7.066l.959-.161a.229.229,0,0,0,.19-.236c-.1-2.289-.128-3.136-.157-3.466-.02-.223-.045-.321-.359-.29-.138.014-.364.044-.756.087,0,0-.137-2.046-.173-2.441.29-2.148-7.422-9.468-15.911-6.936-2.082.622-5.693,2.794-6.882,6.453-1.576,4.852,2,11.851,4.729,12.5.148,1.856.356,4.127.609,5.7-.833.126-3.757,2.157-5.7,3.758-4.309,3.549-9.93,9.455-11.622,18.6a33.063,33.063,0,0,0-.556,8.171C32.94,87.527,22.885,78.3,18.825,66.536,15.324,56.4,15.144,50,18.652,43.885Zm77.739,111.37c-23.733-7.029-40.628-20.968-44.676-25.3C31.653,108.5,19.407,84.621,17.1,62.542c.366,1.315.793,2.686,1.3,4.141C22.512,78.62,32.977,88.351,35.093,89.5c1.257,14.556,14.335,19.774,28.817,20.888.012.019.011.046.03.062,3.3,2.941,18.892,13.391,39.918,21.055,24.695,9,51.947,12.305,77.224,4.687,1.187-.356,3.271-.849,4,.147.014.171.027.333.042.5C157.541,158.326,127.69,164.526,96.391,155.255Z"/><path class="a" d="M189.281,8.839a.228.228,0,0,0-.288-.354c-2.708,2.2-8.192,1.264-11.221-.1a.228.228,0,0,0-.188.416C180.858,10.274,186.478,11.114,189.281,8.839Z"/><path class="a" d="M178.946,29.217a.228.228,0,0,0-.186.416c4.045,1.829,10.8,1.558,13.738-1.619a.227.227,0,1,0-.333-.31C189.368,30.727,182.876,31.006,178.946,29.217Z"/><path class="a" d="M191.291,59.859c-4.26,1.829-7.533,2.027-10.938.667a.228.228,0,0,0-.168.423,12.368,12.368,0,0,0,4.648.917c3.21,0,5.527-1.207,7.324-1.842,1.033-.36,2.445-.856,2.764-1.655a.228.228,0,0,0-.423-.169C194.185,58.983,192.043,59.537,191.291,59.859Z"/><path class="a" d="M193.837,95.193c-3.42,2.375-6.878,2.873-10.252,1.526a.228.228,0,0,0-.17.423c3.722,1.488,7.324.735,10.68-1.573a.228.228,0,0,0-.258-.376Z"/><path class="a" d="M115.624,100.621c1.017.526,2.328-.256,2.927-1.746s.259-3.127-.758-3.654-2.327.254-2.926,1.746S114.606,100.094,115.624,100.621Z"/><path class="a" d="M60.035,157.813c0-6.255-10.187-11.416-23.212-12.055a14.017,14.017,0,0,0,3.056-6.532,21.189,21.189,0,0,0-.507-8.116c-.325-.882-3.144-1.1-4.095-1.164l.919-3.067,4.159-3.376a.228.228,0,0,0-.288-.354c-2.731,2.209-3.719,3-4.078,3.307-.224.189-.188.148-.245.339-.115.385-.472,1.575-.935,3.123a28.922,28.922,0,0,0-6.006.265l-2.426-3.46a24.309,24.309,0,0,0,2.5-.831c.575-.4.434-1.069.842-1.43a3.046,3.046,0,0,1,.8-.3c3.625-1.054-7.35-2.267-8.49-2.174-.149.014-.5.046-.52.326-.156,2.024.7,9.415,1.028,9.74a.252.252,0,0,0,.172.071c.179,0,.236-.052.589-1.054a9.3,9.3,0,0,1,.383-.989c.231-.417.437-.371.75-.3a.747.747,0,0,0,.736-.1c.381-.348.5-1.83.893-2.615l2.245,3.2c-.671.134-2.119.425-2.112,1.107a.108.108,0,0,0,.007.028,17.529,17.529,0,0,0,.367,7.767,15.406,15.406,0,0,0,3.706,6.653c-12.5.865-22.12,5.912-22.12,11.99,0,.436.234,2.957.234,3.145,0,4.258,5.007,7.981,12.493,10.029,2.461,1.421,12.964,7.35,13.567,7.691C27.9,183.523,21.12,188.67,19.822,190a.226.226,0,0,0,0,.321.24.24,0,0,0,.322,0c1.23-1.264,8.13-6.5,14.744-11.392,8.222,4.641,17.35,9.811,17.879,10.33a.228.228,0,0,0,.408-.2c-.113-.324-3.542-2.328-17.886-10.429,3.7-2.735,7.266-5.329,9.66-7.034,6.933-1.442,12.219-4.232,14.2-7.637a5.916,5.916,0,0,0,.856-3C60.015,160.576,60.035,157.883,60.035,157.813ZM30.542,123.676c-.883.267-1.265.3-1.552,1.155-.588-.2-5.141-1.764-6.786-2.41A42.576,42.576,0,0,1,30.542,123.676Zm-6.009,5.658c-1.183-.262-1.323.64-1.764,1.867a66.282,66.282,0,0,1-.822-8.211c1.01,1.859,2.466,5.827,2.728,6.369C24.632,129.352,24.594,129.347,24.533,129.334Zm1.459-2.918c-.548.414-.712,1.723-.98,2.579-.406-.968-1.6-4.171-2.542-5.984,1.894.713,5.774,2.046,6.361,2.247a.662.662,0,0,1-.215.259C28.163,125.829,26.436,126.079,25.992,126.416ZM36.42,141.049l-1.565-2.233c1.231.072,4.217.277,4.256,1.5A7.232,7.232,0,0,1,36.42,141.049Zm-2.31,13.91c2.594.044,4.389.883,4.389,1.643,0,.782-1.888,1.651-4.6,1.651s-4.6-.869-4.6-1.651c0-.756,1.779-1.59,4.353-1.642.011.951.017,1.655.017,1.859a.228.228,0,0,0,.456,0C34.128,156.615,34.12,155.911,34.11,154.959ZM31.921,141.2c.168-.575.422-1.428.723-2.441.1,0,.413-.021,1.633.028l1.628,2.323A26.186,26.186,0,0,1,31.921,141.2Zm1.2-4.057.826,1.18c-.813-.028-1.27-.024-1.169-.024C32.891,137.927,33.006,137.54,33.125,137.141Zm-.168-1.032-2.415-3.445a30.781,30.781,0,0,0,3.44.016C33.644,133.81,33.292,134.987,32.957,136.109Zm6.381,3.529c-.541-.76-2.059-1.171-4.816-1.3l-1.231-1.756c.38-1.275.788-2.64,1.175-3.934,1.79-.116,3.835-.4,4.595-.955A20.109,20.109,0,0,1,39.338,139.638Zm-4.195-9.25c2.476.163,3.77.6,3.774.83,0,.243-1.47.771-4.311.969C34.794,131.557,34.975,130.953,35.143,130.388Zm-.467-.029-.557,1.86a32.489,32.489,0,0,1-3.909-.027L29.093,130.6A30.222,30.222,0,0,1,34.676,130.359Zm-7.588.712a8.042,8.042,0,0,1,1.507-.39l1.025,1.461a10.561,10.561,0,0,1-2.538-.488C26.607,131.473,26.476,131.329,27.088,131.071Zm-.535.809a8.835,8.835,0,0,0,3.4.745l2.833,4.041-.489,1.641c-2.446.049-4.527.5-5.226,1.134A19.8,19.8,0,0,1,26.553,131.88Zm.724,8.172c-.035-.089-.049-.123.023-.213.344-.428,2.083-1.017,4.866-1.077-.3,1.01-.548,1.85-.71,2.4A10.839,10.839,0,0,1,27.277,140.052Zm7.574,38.33c-.637-.36-9.582-5.408-12.348-6.99a54.564,54.564,0,0,0,21.387.41C41.48,173.522,38.214,175.9,34.851,178.382Zm13.56-10.922a53,53,0,0,1-24.566,1.031c-8.96-1.81-15.234-5.915-15.234-10.68,0-5.919,9.685-10.822,22.18-11.565a4.578,4.578,0,0,0,2.791,1.063c.005,1.439.066,7,.067,7.195-2.71.054-4.8.952-4.8,2.1,0,1.182,2.221,2.108,5.056,2.108s5.056-.926,5.056-2.108c0-1.152-2.117-2.055-4.851-2.1,0-.2-.062-5.775-.067-7.209a4.157,4.157,0,0,0,2.328-1.1c12.991.527,23.213,5.535,23.213,11.617C59.578,161.818,55.153,165.378,48.411,167.46Z"/><path class="a" d="M73.093,18.124c2.025.553,5.267-.278,7.214-.666a.228.228,0,0,0-.09-.447c-1.94.391-5.105,1.189-7,.673A.228.228,0,0,0,73.093,18.124Z"/><path class="a" d="M137.2,30.405c2.318-.574,4.413.042,6.74-.853a.228.228,0,0,0-.163-.425c-2.2.846-4.377.263-6.686.835A.228.228,0,0,0,137.2,30.405Z"/><path class="a" d="M99.872,52.757c1.23.544,4.637-.7,6.044-.62a.228.228,0,0,0,.024-.456c-1.331-.071-4.114.876-5.478.75a.228.228,0,1,0-.251-.38c-.157.112-.515.207-.507.47A.321.321,0,0,0,99.872,52.757Z"/><path class="a" d="M140.227,74.434a.228.228,0,1,0-.1.445c1.565.353,3.572-.307,5.111-.445a.228.228,0,0,0-.041-.455C143.658,74.117,141.683,74.758,140.227,74.434Z"/><path class="a" d="M164.494,98.87c1.282-.586,2.345-.048,3.651.393a.228.228,0,1,0,.148-.432c-1.414-.485-2.553-1.027-3.986-.377a.228.228,0,0,0,.187.416Z"/><path class="a" d="M173.133,160.078c-.648.053-3.947.148-4.934.252a.228.228,0,0,0,.022.454l.024,0c.971-.1,4.265-.208,4.916-.249A.228.228,0,0,0,173.133,160.078Z"/><path class="a" d="M79.05,182.067a19.959,19.959,0,0,1-4.987.622.229.229,0,0,0,0,.457,20.768,20.768,0,0,0,5.1-.639.227.227,0,0,0,.166-.276A.229.229,0,0,0,79.05,182.067Z"/><path class="a" d="M139.1,185.216c-2.3.434-3.689,1.155-5.716.479a.228.228,0,0,0-.145.432c2.168.718,3.564-.006,5.945-.463A.228.228,0,0,0,139.1,185.216Z"/><path class="a" d="M10.514,132.864a.228.228,0,1,0,.408.2c.482-.964,2.244-.6,3.46-.823a.228.228,0,0,0-.081-.448C13.076,132.025,11.148,131.6,10.514,132.864Z"/></svg>