<svg id="Layer_1" data-name="Layer 1" xmlns="http://www.w3.org/2000/svg" viewBox="0 0 171.58 190"><title>7900103_grow_finance_plant_dollar_coin_icon</title><path d="M173.85,86.77c1.05,1.55.71,1.85,1.3,2,.82,0,.33-.87,1.84-2.75a7.08,7.08,0,0,1,1.32-1.22c.39-.28.47-.26.58-.5.22-.83-1.31-.54-3-3-.54-.8-.44-.88-.67-.86s-.46,1.08-1.79,2.34-1.8,1-1.73,1.6S172.68,85.06,173.85,86.77Zm1.4-5.58a8.69,8.69,0,0,0,1.68,2.34,7.5,7.5,0,0,0,.7.6A7.18,7.18,0,0,0,175.18,87a9.82,9.82,0,0,0-2.29-2.72,7.71,7.71,0,0,0,2.36-3.09Z" transform="translate(-14.21 -5)"/><path d="M143.59,73.08a8.71,8.71,0,0,1-3.28,3.45c-.46.72.77.71,2.23,3,.9,1.43.6,1.62,1.13,1.75.82,0,.41-.89,1.74-2.63a8.74,8.74,0,0,1,1.92-1.7.46.46,0,0,0-.06-.64,10,10,0,0,1-1.49-1C144,73.83,143.95,72.42,143.59,73.08Zm.18.65a8.57,8.57,0,0,0,1.68,2.34,7.3,7.3,0,0,0,.7.6,7.16,7.16,0,0,0-2.44,2.88,9.88,9.88,0,0,0-2.29-2.72A7.62,7.62,0,0,0,143.77,73.73Z" transform="translate(-14.21 -5)"/><path d="M185.63,105.63a8,8,0,0,1-2.62-2.18c-.66-.86-.65-1.15-.85-1.2a.2.2,0,0,0-.22.12,9,9,0,0,1-3.28,3.45c-.35.55.24.65,1.2,1.7a11.12,11.12,0,0,1,1.86,2.92.51.51,0,0,0,.72,0h0c.38-.41.43-2.28,3-4,.28-.19.17-.09.3-.22a.46.46,0,0,0-.05-.65Zm-3.58,3.2a10,10,0,0,0-2.29-2.72,7.77,7.77,0,0,0,2.37-3.12,7.64,7.64,0,0,0,2.36,3A7.13,7.13,0,0,0,182.05,108.83Z" transform="translate(-14.21 -5)"/><path d="M170.11,125.87a20.92,20.92,0,0,1-1.07-2.18c1.4-.15,3.3-.68,3.29-2.07a2.59,2.59,0,0,0-.41-1.37c-1.49-2.15-5.16.65-6.24-.25,4.71-7.71,4.16-15.55-.72-23,.61-39.62-33.27-40.82-31.75-41.9a4.88,4.88,0,0,0,1.55-4.31A11.7,11.7,0,0,0,135.81,44a7.6,7.6,0,0,0,2.25-3.69c1.26-5.2-4.2-9.94-9.91-6.25-2.9-1.69-4.24-3-9.63-3.05C110.71,31,106.8,37,107.2,44.6c.14,2.65.89,3.47,1.58,5.22a3.52,3.52,0,0,0,1.31,4.49C100.83,55,94,57.78,86.32,65.51c1.31-9.47,2.39-23.65.93-33.15A50.4,50.4,0,0,0,82,16.47c-3.45-7-9-10.13-16.55-11A78.84,78.84,0,0,0,55.24,5c-9.55.2-18.14,4.59-22.7,13.48-5.58,10.89-4.47,25.85-3.6,38,1.24,17.49,5,34,22.56,36.12a61.27,61.27,0,0,0,7.15.23c.12,6.65.25,12.24.27,16-16.45,0-15.67,0-15.66.29,4,46.44,3.71,43.53,4.07,43.73-.13,0,1.59,1.07,28.83-.05.34,0,.56,0,.73-.32.05-.15,1.31-14.22,2.36-26.25a123.83,123.83,0,0,0,4.48,27.52c1.08,3.66,1.27,3.35.61,2.84-.1-.06-3.85-4.26-4.64-.49a30.17,30.17,0,0,0-.3,3.07c-.25,3.48,0,5.32-.13,7.43-.13,3,1,3.1,1.65,2.17a14.55,14.55,0,0,0,1.57-3.67,40.69,40.69,0,0,0,10.79,12.65,11.72,11.72,0,0,0,4.79,2.6c2.66.79,6.79,1.25,9.45.52,1.82-.5,1.89-1.22,2.34-2.64,3.5-11,4.61-32.81,4.93-31.3,1.29,6.1,2,26.43,6.3,30.52,2.21,2.11,6.16,2.34,9.31,2.21a4.66,4.66,0,0,0,.28,1.65c.73,1.57,3.6,2.35,5.3,2.73,6.56,1.48,23.18,1.91,26.85-2.67.62-.77.54-.88,1.42-6,.38-2.28,3.15-18.58,3-20.85-.23-3.3-5.67-4.41-9-5,6.83-2.48,14.46-5.5,19.76-9.58a9.81,9.81,0,0,0,3.4-4.83C184.18,128.14,176.57,124.75,170.11,125.87Zm-3.86-4.8c1.75,0,4.19-1.47,4.92-.23a.93.93,0,0,1,0,1.21,5.88,5.88,0,0,1-2.75.73c-.88.24-.33,1.25.73,3.31-3.23.83-5.66,2.87-8.08,5.18-1.47-2.9.38-2-3.33-4.28a15.71,15.71,0,0,0,7.51-6.26,1.53,1.53,0,0,0,1,.34Zm-18.32,31.45c0-1.19.15-2.21.28-3.67l1.09,0c-.23.59-.57,1.51-1.37,3.62Zm1.57-4.12-1.24,0c.27-3.05.62-8,.7-19.46a32.75,32.75,0,0,0,8.11-1.67,29.86,29.86,0,0,1,2.48,1.72c.28.35-.12.52,1,2.81A45.35,45.35,0,0,0,149.5,148.4ZM165.09,98c4.64,7.94,4,15.6-.54,22.21-2.21,3.2-4.8,5.58-10.46,6.92a44.25,44.25,0,0,1-6.66.92c-3.9.21-10.71-2.17-15.46-6.6-12.2-11.38-3.66-27,5.75-30.74,8.73-3.51,21.94-2,27.37,7.3ZM112,135a6.43,6.43,0,0,0,.41,1.45c-2.54-.15-5.07-.44-7.62-.81.22-1.91,1.8-4.52,3.86-9.38.34-.81.48-.84.58-.87a4,4,0,0,1,1.81.42c.66.28,2.79,1.34,5.1,2.52a8.68,8.68,0,0,0-3.39,2.66A5.48,5.48,0,0,0,112,135Zm-11.36-5.19a43.31,43.31,0,0,1,.81,4.92c.49,3.76.9,5.19.5,6.24-.29.77-.82.47-1.33-.18-1.59-2-2.73-10-3.1-10a.5.5,0,0,0-.82.23,8,8,0,0,0,.32,1.69c.11.6.71,3.09.74,3.19a1.67,1.67,0,0,1-.09,1.51c-1,1-1.94-.69-2.44-2s-.36-2.27-1-2.36c-1,0-.07,1.73-.27,2.34a1.09,1.09,0,0,1-.89.57c-.65.1-1-.93-1.17-1.59a13.74,13.74,0,0,1-.65-3.51c.1-1.2.13-1.05-.88-2.22S87.18,125,86.25,124c2.14-2.65,5.75-4.64,6.54-5.25a5.24,5.24,0,0,1,1.6-1c-.1,0,.39-.34,2.32,2.72s1.21,3.56,3.56,3.71a4.27,4.27,0,0,1,2.75,1,5.75,5.75,0,0,1,1,.82s0,0,0,0a8.55,8.55,0,0,0-2.84.16c-.62.09-.92.27-.91,1A16.29,16.29,0,0,0,100.68,129.83ZM87,122.48l-.94-.17c-.24-.18-.55-.43-.92-.73l.84-.68C86.76,122,86.65,121.84,87,122.48Zm-.21-2.2c1.69-1.28.8-.51,5.32-3.6.39.62.57.82.79,1.16-2.45,1.89-3.5,2.42-5.14,3.91a11.33,11.33,0,0,0-1-1.47Zm-.75,3.28c-.52.64-.7,0,3.1,4.48-1.64-.49-6.41-2.09-6.57-2.2s.45-2.85.47-3,2.9.61,3,.68Zm15.15,3.64A15,15,0,0,1,103,127a29,29,0,0,1,4.19.77c-.56,1.33-1.39,3.24-2,4.89l-3.17-.9c-.26-1.56-.81-3.56-.84-4.53Zm16.9,1.51c2.55-.06,4.57-.15,6.56-.27a12.71,12.71,0,0,1,3.24,1.24,45.33,45.33,0,0,1,8.35,6.72A44.74,44.74,0,0,1,145.2,149c-4.28-5.52-14.94-13.1-22.28-13.34-.27.23-.27.13,0,.41,6.67.73,20.43,9.9,23.72,16.27-6.15-2.24-18.59-5.45-26.09-9.42a28.49,28.49,0,0,1-4.61-3,11.87,11.87,0,0,1-2.77-4.73c-.85-3.49,1.63-5.53,5-6.57Zm.43-37.13a7.68,7.68,0,0,0,2.36-3.1c.11-.26.18,1.25,2.37,2.93a7.18,7.18,0,0,0-2.44,2.88,9.87,9.87,0,0,0-2.29-2.72Zm20.86,35.73a22.78,22.78,0,0,0,6.71,1.72c.49,0,.09-.81-.11,7.39a105.5,105.5,0,0,0,.2,11.95l-.73.05A44.92,44.92,0,0,0,135.05,134c-2.14-2-5.12-4.53-7.7-5.68,4-.25,8.88-.62,12.06-1Zm-11.53-9.13a24.83,24.83,0,0,0,9.69,8.3c-2,.17-5.38.44-8.83.68-.36-3-.69-6-.87-9Zm18.53,32.24-.73-1.57.56,0c0,.52.1,1.05.16,1.59Zm-9.18-93.14c17.7,5,26.7,19.73,26.76,38.35-2.37-3.06-5.43-5.12-10.12-6.47-6.41-1.84-13.31-1-17.72,1.24a20.45,20.45,0,0,0-7.7,7c.41-5.58,2-23,2.2-25,3.55-3.57,5.71-7.28,6.58-15.14Zm-27.87-7.37c.47-1.17,1.51-2,2.65-1.4a2.72,2.72,0,0,1,1.67,1.23c.41.83.74-1.59,1.66-6.21,2.39,2,6.18,3.06,10.8,1.82,2.74-.73,1.6-.91,3-.34a8.6,8.6,0,0,0,2,.42c.19,1.57-.32,3.75.06,4.09a.52.52,0,0,0,.36.1,2.56,2.56,0,0,1,2.11.77c.51.88.13,3.46-1.53,4.08-1.15.44-.49.62-.81,2.67-.39,2.53-1.81,6.78-4.54,7.84-4.38,1.7-10.22.92-12.51-3.45-1.24-2.36-1.11-6.35-1.51-7.19-.33-.57-1.36-.28-1.86-.48C108.21,52.86,109.39,50,109.37,49.92ZM58.49,70.12a80.83,80.83,0,0,0-12.37-17c-.37-.28-1.48-.58-.26,1.58,1.49,2.66,2.77,5.21,8.83,13.55,1.54,2.12,2.3,2.95,3.79,4.84,0,6.82.06,13.39.16,19.19-1.61,0-3,0-4-.06-22.63-.9-24.09-21.69-25.28-44-1.09-20.37,2.08-38.6,22.18-41.8,5.3-.84,14.47-.17,18.36,1,7.49,2.23,10.29,6.94,13.22,13.88,5.29,12.54,4.23,25.75,3,39.58-.17,1.9-.37,3.73-.61,5.51C78.17,74,73.93,82.42,72.34,90.65,69.66,91.74,65,92.14,61,92.25c0-.11.07-13.45.07-13.69A63.4,63.4,0,0,0,69.88,68c5.06-7.27,3.33-7.51,2.49-6.53-1.36,1.58-2.87,3-4.81,5.49a95.8,95.8,0,0,0-6.51,9c0-13.38-.19-18.23-.61-26.84-.19-3.93,0-3.59-.68-3.86l-.35.15-.16.36c0,.28-.69,13.55-.77,24.3Zm14.14,36.47a20.76,20.76,0,0,0,.62,2.25l-13.24,0c.39-4.66.89-11.36,1-16,4.18-.18,8.6-.66,11.29-1.67a37.52,37.52,0,0,0,.37,15.47ZM43.29,109.1h0ZM76,151.77c-3.69.14-24.23,1-28,.24-2.44-25.35-4.33-42.72-4.19-42.72,3.43,0,27,.37,29.78.42,1.11,2.74,3.45,5.43,5.51,7.58-1,11.17-2.1,23.3-3.1,34.49ZM74.81,110c-1.24-2.53-2.52-8.93-2-15.1,1-12.7,8.19-24.23,17.87-32.46,4.62-3.93,9.05-6.07,16.07-7.24-.47,6.55.68,13.06,5.09,17.89.52,11.23,1.15,41.29-1.54,51.53-1.93-.42-2,.58-2.69,2.3-.63-.17-1.39-.35-2.23-.54.07-.59-1.68-2.2-3.73-2.91-.6-.21-2.1-.18-2.37-.31-.67-.67-.71-1.53-2.54-4.06-1.6-2.21-2.22-2.34-3.24-1.65-.22-.26-.5-.53-.92-1,.85-.58,1.11-.67,1-1.1-1.88-5.93-4.55-7.47-6.13-11.48a17.65,17.65,0,0,0,1.5-1.42,56.1,56.1,0,0,0,5.68-9.28c2.61-4.86,6.27-12.13,6.65-17.64,0-.55-.37-.52-.41,0C100.38,80.83,96.63,88,94,92.78c-2.36,4.23-3.59,6.47-5.36,8.65-1.55,1.92-2.39,1.74-2.08,2.54A13.06,13.06,0,0,0,89,108.5a27.94,27.94,0,0,1,3.46,6.75c-6,4.07-4.94,3.12-8.1,5.65-3-2.48-7.86-7.37-9.58-10.88Zm7.55,53.54c-.84.63-.82,2.09-2.06,4.28,0-.13-.07-6.93.12-9.64.07-1,0-2.23.4-2.73s2.08.51,2.95,1.26c-.14.59-1,4.92-1.4,6.83ZM122,176.85c-4.71-3.94-4.94-28.63-6.69-31.68a.61.61,0,0,0-1.13-.08c-1,1.6-1.45,16.72-4.06,28.44a51,51,0,0,1-1.58,5.64c-.72,1.61-9.14,1.54-13-.94A39.42,39.42,0,0,1,83,164.3l1.36-6.75c1.07.83,1,.8,1.19.81a.38.38,0,0,0,.36-.45c0-.13-2.23-5.24-4.22-15.81a111.7,111.7,0,0,1-2.07-20.47c.11-1.2.21-2.36.3-3.45,4.83,4.83,4.53,3.54,3.08,3.51s-1.06,1.23-1.56,3.69c-.32,1.61,1.09,1.6,2.8,2.24a38.36,38.36,0,0,0,6,1.73c.63.78.4.52.35,1.59a15,15,0,0,0,.89,4.44c.38,1,1.09,1.58,2.16,1.21a1.89,1.89,0,0,0,.86-.57c1.09,2.93,2.86,3.12,3.84,2,.44,1.5,1.12,3.72,2.58,4.29a1.34,1.34,0,0,0,1.39-.18c1.39-1.15.61-4,.26-6.57-.21-1.55-.35-2.55-.46-3.28l2.9.75c-.54,1.51-.86,2.72-.56,2.92a63.69,63.69,0,0,0,8.28,1.22c1.36,2.73,2.08,3.73,6.46,6.15s13,5.3,17.84,6.66c-4.57,1-9.41,2.6-9.28,4.86a2.14,2.14,0,0,0,.51,1.18c.3,4,1.72,19.81,2,22.55-3.15.15-6.38-.18-8.31-1.79Zm38.84-7.72a47.3,47.3,0,0,1-.6,4.78c-.27,1.57-.66,3.12-.72,3.3-.23.32-.11.4-.48.32-.82-.16,0,.52.08-8.69,0-4.4.07-5.57.07-5.73a1,1,0,1,1,2,.05v0c0,.09-.33,5.13-.39,5.92Zm4.9-16.53c6.57,6.4-33.78,9-37.43,3.07-1.58-2.6,4.36-4.33,9.56-5.41,2.75.77,5.37,1.46,8.91,2.63.17.95.93,1,1.12.33.16.06-.37.1,9.45-3.44,3.71.62,7.1,1.57,8.39,2.83Zm-9.72-3c-2.19.82-4.26,1.59-7.37,2.95a9.71,9.71,0,0,1,2.13-3.53c4.5-5.27,14.3-13.1,20.47-14.26.24-.15.24-.32-.06-.41-7.06.76-16.77,8.39-20.94,14.13h-.14c.46-1,.92-2,2-4a40.18,40.18,0,0,1,7.73-10.63c2.24-2.31,4.8-4.78,7.5-6a12.46,12.46,0,0,1,9.17-.51c2.08.69,4,1.78,4.44,3.91.7,3.33-1.85,6.79-5,9a37.78,37.78,0,0,1-6.28,3.56c-6.35,3-10.69,4.71-13.61,5.81Z" transform="translate(-14.21 -5)"/><path d="M124.5,55.79c0-.1-.47-5.74-1.25-5.74-1.31,0,.58,5.35.57,5.53h0c-.16.47-1.16.81-1.61.88s-.92-.07-.5.43C122.58,57,124.23,56.63,124.5,55.79Z" transform="translate(-14.21 -5)"/><path d="M116.2,49.71a10,10,0,0,1,1.74-.32c1.26-.13.76.1,1.31-.21.41-.48-.06-.91-.69-.83-1.74.23-3.16,1-2.94,1.38S115.8,49.82,116.2,49.71Z" transform="translate(-14.21 -5)"/><path d="M125.48,49.1c.79.13-.25-.31,3,0,.33,0,.2.06.51-.12-.15-.25.06-.26-1.54-.7-.7-.19-1.53-.49-2.14-.13C125,48.32,124.81,49,125.48,49.1Z" transform="translate(-14.21 -5)"/><path d="M117.86,50.66a.51.51,0,0,0-.59.42,4.59,4.59,0,0,0,0,1.4.51.51,0,0,0,1-.17h0a3.59,3.59,0,0,1,0-1.05.51.51,0,0,0-.41-.6Z" transform="translate(-14.21 -5)"/><path d="M127.11,51a.51.51,0,0,0-1-.18h0a4.84,4.84,0,0,0,0,1.43.51.51,0,1,0,1-.13v0A3.81,3.81,0,0,1,127.11,51Z" transform="translate(-14.21 -5)"/><path d="M121.74,61.65a3.26,3.26,0,0,0,2.94-1.87c-.1-.52-.35-.19-.59,0a3.15,3.15,0,0,1-2.92.78C120.38,60.81,120.2,61.72,121.74,61.65Z" transform="translate(-14.21 -5)"/><path d="M140.15,93.13a16.61,16.61,0,0,0-7.5,5,19,19,0,0,0-4.06,8.39c-1.51,9.41,6.88,16.7,16.07,18.73,3.91.86,12.29-.31,16.37-3.93,5.37-4.76,7.92-13.4,2.08-22C158.49,92.51,148.25,90.66,140.15,93.13Zm23.05,7c3.47,5.55,3.89,11.43.27,17.11-3.41,5.34-7.7,6.89-15,7.44-9.21.69-26.65-10.21-15.76-25.34A15.94,15.94,0,0,1,139.95,94C150.28,90.53,159.5,94.19,163.2,100.12Z" transform="translate(-14.21 -5)"/><path d="M125.57,187.61c-.42-3.11-5.95-5.29-11.11-3.4-2.14.78-4,2.38-3.74,4.43a8.37,8.37,0,0,0,.34,3.26c.58,1.64,2.05,2.29,3.78,2.68a12.68,12.68,0,0,0,6.38,0c2-.45,3.65-1.32,4.36-3.23A10.2,10.2,0,0,0,125.57,187.61ZM123,185.69c4.86,3.26-2.1,8.37-9.15,5.41a3.17,3.17,0,0,1-2.22-2.38c-.63-3.41,7.26-5.79,11.37-3Zm-9.12,7.88a3.13,3.13,0,0,1-2.23-3c2.39,2.5,10.75,2.64,13.17-.56.34,3.74-6,5.6-10.93,3.52Z" transform="translate(-14.21 -5)"/><path d="M46.59,157.72c-5.28-2.39-14,.91-11.42,5.62,0,1,.1,2.36.19,3.9a12,12,0,0,0-6.21.61c0-1.91,0-3.56-.13-4.58.29-1.59-.72-3.3-3-4.32-3.53-1.62-8.79-.57-10.87,1.62a3.33,3.33,0,0,0-.55,4c0,.1.88,17.42.9,17.52a3.14,3.14,0,0,0-.85,2.65,8.3,8.3,0,0,0,.35,3.22,3,3,0,0,0,.94,1.42,6.63,6.63,0,0,0,2.84,1.26,12.78,12.78,0,0,0,6.38,0c2-.46,3.65-1.33,4.36-3.23a9.69,9.69,0,0,0,0-3.81,3.46,3.46,0,0,0-.78-1.64c.08-.78.17-3.19.2-4a14.05,14.05,0,0,0,7,.19c.1,2.41,0,2.52.26,3.1,1.45,2.84,10.64,2.59,12.59.51a1.59,1.59,0,0,0,.46-1.12c.2-2.37.6-14.83.27-18.65C49.84,160.44,48.82,158.72,46.59,157.72Zm-20.06,2.62c4.85,3.26-2.09,8.38-9.15,5.41a3.17,3.17,0,0,1-2.22-2.38C14.5,159.77,22.67,157.74,26.53,160.33Zm-11.09,8c-.1-1.11-.19-2.15-.25-3.06,2.37,2.42,10.35,2.6,13-.38,0,.72,0,1.56,0,2.48C26,170.1,17.1,169.45,15.44,168.34Zm.05.6c2.64,1.91,10.24,2,12.69-.72,0,1.19,0,2.47-.07,3.76-2,1.49-10.35,1.32-12.31.4l-.32-3.44ZM17.76,177a3.3,3.3,0,0,1-1.59-.5c-.09-1.18-.2-2.39-.3-3.58,2.62,1.55,9.74,1.65,12.24-.31,0,1.22-.07,2.44-.1,3.57a20.8,20.8,0,0,1-10.25.82ZM28,176.76c-.06,1.83-.13,3.4-.18,4.35-3.1-2.32-8.53-1.82-11.35.22,0-1.11-.06-1.88-.23-4.2,1.78,1.24,7.46,2,11.77-.37Zm-12,6.47c1.7-2.75,8.85-3.88,11.83-.82a2.22,2.22,0,0,1,.85,2c-.49,3.69-8.45,4.82-12,2.05a2.54,2.54,0,0,1-.71-3.28Zm12.87,2.91c.77,4.64-10.26,5.87-12.62,2.29a4.18,4.18,0,0,1-.52-1.7c2.33,2.41,10.56,2.7,13.15-.59Zm18.24-27c4.89,3.29-2.14,8.35-9.15,5.41a3.17,3.17,0,0,1-2.22-2.38c-.66-3.58,7.49-5.63,11.37-3Zm-17.9,9.79a10.91,10.91,0,0,1,6.27-.61c.13,2.28.28,4.78.39,6.85a9.24,9.24,0,0,1-6.76-.3c.06-1.95.09-4,.1-5.94ZM29,177.29c0-.55,0-1.13.06-1.73a13.29,13.29,0,0,0,6.81.16c0,.71.07,1.36.1,1.91a9.72,9.72,0,0,1-7-.35Zm19.24,3.63c-.66,1.52-8.86,2.31-10.95.22-.32-.35-.3-.48-.33-1.44,2.29,2,9.12,1.63,11.38,0a9,9,0,0,1-.1,1.19Zm.15-2c-1.67,1.2-9.58,1.6-11.45,0,0-.86-.12-2.18-.19-3.06a7.15,7.15,0,0,0,2.49.87,13.45,13.45,0,0,0,9.28-1.24c0,1.31-.09,2.49-.13,3.41Zm.16-4a23.89,23.89,0,0,1-6.67,1.12,36,36,0,0,1-3.69-.31,3.34,3.34,0,0,1-1.49-.48c-.09-1.19-.2-2.4-.3-3.59,2.74,1.63,9.84,1.61,12.24-.29,0,1.21-.06,2.42-.1,3.54Zm.12-4.21c-1.92,1.41-10.19,1.34-12.31.39-.11-1.18-.22-2.34-.32-3.43,2.42,1.69,10.18,2.19,12.69-.68,0,1.17,0,2.44-.06,3.72Zm.07-4.59c-2.1,2.59-10.81,2.21-12.75,1-.1-1.12-.19-2.16-.25-3.07,2.37,2.45,10.36,2.59,13-.36,0,.71,0,1.55,0,2.48Z" transform="translate(-14.21 -5)"/><path d="M78.68,185.65c-.31-1.77-2.16-3.46-5.38-3.94a12,12,0,0,0-4.67.29c.16-4.71.28-11.46.05-14.1.26-1.31-.36-2.74-2.11-3.86-4.94-3.2-15,.06-12.27,5.14,0,.1.84,17.55,1.05,18,.93,1.83,5.23,2.39,8.63,2a3.58,3.58,0,0,0,2.18,3,13.8,13.8,0,0,0,5.49,1,18.43,18.43,0,0,0,3.57-.63,5.14,5.14,0,0,0,3.51-3A9.48,9.48,0,0,0,78.68,185.65ZM66.18,165c4.85,3.26-2.05,8.37-9.15,5.41A3.19,3.19,0,0,1,54.82,168c-.67-3.56,7.47-5.65,11.37-3ZM55.1,173c-.1-1.11-.19-2.15-.25-3.06,2.27,2.35,10.26,2.7,13-.4,0,.72,0,1.57,0,2.5C65.62,174.66,57,174.21,55.1,173Zm.05.59c2.4,1.68,10.19,2.16,12.69-.68,0,1.18,0,2.45-.07,3.72-2,1.45-10.32,1.29-12.31.39-.11-1.18-.22-2.34-.32-3.43Zm.67,7.57c-.09-1.18-.2-2.39-.3-3.58,2.66,1.58,9.81,1.63,12.24-.3,0,1.21-.06,2.42-.1,3.55-5.08,1.8-11.19,1-11.85.33Zm8,6.95c-2.73.35-6.24.11-7.46-1.11-.31-.35-.3-.43-.33-1.43,1.49,1.26,4.94,1.57,7.78,1.18,0,0,0,.87,0,1.37Zm0-2.35c-1.93.21-6.36.34-7.82-.89,0-.91-.12-2.17-.19-3.09,1.82,1.27,7.62,2,11.77-.37,0,.32,0,.62,0,.92-1.93.71-3.45,1.9-3.74,3.42Zm1.25-.49c1.78-2.88,8.94-3.78,11.83-.82a2.22,2.22,0,0,1,.85,2,3.91,3.91,0,0,1-2.64,2.82,15.58,15.58,0,0,1-3.29.88c-.6.11-4.43-.38-6-1.64a2.54,2.54,0,0,1-.71-3.28Zm12.45,4.7c-1.34,2.18-5.92,3.7-10.51,1.73A3,3,0,0,1,64.88,189a12.7,12.7,0,0,0,10.53.94,5.61,5.61,0,0,0,2.6-1.72,2.35,2.35,0,0,1-.43,1.76Z" transform="translate(-14.21 -5)"/><path d="M144,104.31a21.51,21.51,0,0,0,2-5.16s.28-.88.28-1-.12-.16-.12-.16l-.17-.12-.26-.09-.15,0a54.89,54.89,0,0,0-3.18,5l-2.19,4.78,0,0a14.25,14.25,0,0,0-.87,2.64s-.28.88-.28,1,.12.16.12.16l.17.12.26.09.15,0a54.89,54.89,0,0,0,3.18-5Z" transform="translate(-14.21 -5)"/><path d="M146.06,109.18a21.51,21.51,0,0,0,2-5.16s.28-.88.28-1-.12-.16-.12-.16l-.17-.12-.26-.09-.15,0a54.89,54.89,0,0,0-3.18,5l-2.19,4.78,0,0a14.25,14.25,0,0,0-.87,2.64s-.28.88-.28,1,.12.16.12.16l.17.12.26.09.15,0a54.89,54.89,0,0,0,3.18-5Z" transform="translate(-14.21 -5)"/><path d="M152.29,106.08a21.51,21.51,0,0,0,2-5.16s.28-.88.28-1-.12-.16-.12-.16l-.17-.12L154,99.6l-.15,0a54.89,54.89,0,0,0-3.18,5l-2.19,4.78,0,0a14.25,14.25,0,0,0-.87,2.64s-.28.88-.28,1,.12.16.12.16l.17.12.26.09.15,0a54.89,54.89,0,0,0,3.18-5Z" transform="translate(-14.21 -5)"/><path d="M154.4,111.68a21.51,21.51,0,0,0,2-5.16s.28-.88.28-1-.12-.16-.12-.16l-.17-.12-.26-.09-.15,0a54.89,54.89,0,0,0-3.18,5L150.61,115l0,0a14.25,14.25,0,0,0-.87,2.64s-.28.88-.28,1,.12.16.12.16l.17.12.26.09.15,0a54.89,54.89,0,0,0,3.18-5Z" transform="translate(-14.21 -5)"/></svg>