<svg xmlns="http://www.w3.org/2000/svg" width="1752.261" height="3425.896" viewBox="0 0 1752.261 3425.896">
  <path id="Path_772" data-name="Path 772" d="M253.177,1596.309s-197.708,227.558-114.505,581.5,392.244,287.909,629.967,223.2,252.251-77.92,252.251-77.92S1149,2282.145,1225.6,2349.5s30.376,161.124,30.376,161.124-29.182,98.545-165.213,4.776,203.513-56.282,314.45-82.7,270.741-100.372,270.741-100.372,67.355-77.92,23.772-84.524-79.241,29.055-79.241,29.055-36.979,35.659,71.317,63.393,79.241,367.151,79.241,367.151-19.81,221.875-43.583,352.623-40.941,257.534-31.7,344.7,88.486,35.658,88.486,35.658,64.714-71.317-25.093-62.072-2.511,434.266-100.241,434.266-259.876-77.39-565.961-209.987-706.978-117.274-706.978-117.274-99.361-40.925-215.581-126.77-3.743-110.618-15.63-30.057S95.644,3614.88,95.644,3772.042s64.295,746.745,123.726,864.286-111.044,43.813-79.43,10.141,234.338,91.821,395.462-27.04,534.2,33,740.223,42.25,340.98,27.062,340.98,27.062,377.465,182.962,163.779,295.6-386.723-73.521-386.723-73.521-107.034-122.325,6.371-84.1-572.255,110.442-572.255,110.442" transform="translate(-94.644 -1595.653)" fill="none" stroke="#c6b5a4" stroke-width="2" stroke-dasharray="9 8"/>
</svg>
