<svg xmlns="http://www.w3.org/2000/svg" width="33.097" height="33.101" viewBox="0 0 33.097 33.101">
  <g id="streamline-icon-database-check_25x25" data-name="streamline-icon-database-check@25x25" transform="translate(0.106 0.128)">
    <path id="Path_799" data-name="Path 799" d="M.544,6.052c0,3.054,5.881,5.531,13.135,5.531S26.814,9.107,26.814,6.052,20.933.522,13.679.522.544,3,.544,6.052Z" transform="translate(0)" fill="none" stroke="#000" stroke-linecap="round" stroke-linejoin="round" stroke-width="1.3"/>
    <path id="Path_800" data-name="Path 800" d="M13.679,14.385C6.426,14.385.544,11.91.544,8.854" transform="translate(0 2.727)" fill="none" stroke="#000" stroke-linecap="round" stroke-linejoin="round" stroke-width="1.3"/>
    <path id="Path_801" data-name="Path 801" d="M11.6,19C5.337,18.588.544,16.3.544,13.543" transform="translate(0 4.262)" fill="none" stroke="#000" stroke-linecap="round" stroke-linejoin="round" stroke-width="1.3"/>
    <path id="Path_802" data-name="Path 802" d="M12.3,28.163c-6.6-.29-11.752-2.642-11.752-5.5V4.688" transform="translate(0 1.364)" fill="none" stroke="#000" stroke-linecap="round" stroke-linejoin="round" stroke-width="1.3"/>
    <path id="Path_803" data-name="Path 803" d="M20.335,4.689V10.91" transform="translate(6.479 1.364)" fill="none" stroke="#000" stroke-linecap="round" stroke-linejoin="round" stroke-width="1.3"/>
    <path id="Path_804" data-name="Path 804" d="M12,20.276a8.3,8.3,0,1,0,8.3-8.3,8.3,8.3,0,0,0-8.3,8.3Z" transform="translate(3.75 3.751)" fill="none" stroke="#000" stroke-linecap="round" stroke-linejoin="round" stroke-width="1.3"/>
    <path id="Path_805" data-name="Path 805" d="M22.922,16.414,18.905,21.77a1.037,1.037,0,0,1-1.562.111l-2.074-2.074" transform="translate(4.82 5.202)" fill="none" stroke="#000" stroke-linecap="round" stroke-linejoin="round" stroke-width="1.3"/>
  </g>
</svg>
