<svg xmlns="http://www.w3.org/2000/svg" width="32.868" height="32.258" viewBox="0 0 32.868 32.258">
  <g id="streamline-icon-performance-increase_25x25_1_" data-name="streamline-icon-performance-increase@25x25(1)" transform="translate(0.125 -0.056)">
    <path id="Path_806" data-name="Path 806" d="M.525,24.219H32.093" transform="translate(0 7.444)" fill="none" stroke="#000" stroke-linecap="round" stroke-linejoin="round" stroke-width="1.3"/>
    <path id="Path_807" data-name="Path 807" d="M5.68,25.211V21.78a.686.686,0,0,0-.686-.686H2.249a.686.686,0,0,0-.686.686v3.431" transform="translate(0.33 6.452)" fill="none" stroke="#000" stroke-linecap="round" stroke-linejoin="round" stroke-width="1.3"/>
    <path id="Path_808" data-name="Path 808" d="M11.93,26.535V17.613a.686.686,0,0,0-.686-.686H8.5a.686.686,0,0,0-.686.686v8.921" transform="translate(2.315 5.128)" fill="none" stroke="#000" stroke-linecap="round" stroke-linejoin="round" stroke-width="1.3"/>
    <path id="Path_809" data-name="Path 809" d="M18.18,27.858V13.447a.686.686,0,0,0-.686-.686H14.749a.686.686,0,0,0-.686.686V27.858" transform="translate(4.3 3.805)" fill="none" stroke="#000" stroke-linecap="round" stroke-linejoin="round" stroke-width="1.3"/>
    <path id="Path_810" data-name="Path 810" d="M24.43,29.182V9.28a.686.686,0,0,0-.686-.686H21a.686.686,0,0,0-.686.686v19.9" transform="translate(6.285 2.481)" fill="none" stroke="#000" stroke-linecap="round" stroke-linejoin="round" stroke-width="1.3"/>
    <path id="Path_811" data-name="Path 811" d="M3.129,17.773,27.835,1.3" transform="translate(0.827 0.165)" fill="none" stroke="#000" stroke-linecap="round" stroke-linejoin="round" stroke-width="1.3"/>
    <path id="Path_812" data-name="Path 812" d="M22.516,6.958l.686-5.49L17.713.781" transform="translate(5.459)" fill="none" stroke="#000" stroke-linecap="round" stroke-linejoin="round" stroke-width="1.3"/>
  </g>
</svg>
