<svg xmlns="http://www.w3.org/2000/svg" width="14.253" height="14.253" viewBox="0 0 14.253 14.253">
  <g id="streamline-icon-gift-box_25x25" data-name="streamline-icon-gift-box@25x25" transform="translate(0.4 0.4)">
    <path id="Path_766" data-name="Path 766" d="M13.974,9.567a.585.585,0,0,1-.585.585H1.106a.585.585,0,0,1-.585-.585V8.4a.585.585,0,0,1,.585-.585H13.389a.585.585,0,0,1,.585.585Z" transform="translate(-0.521 -3.718)" fill="none" stroke="#fff" stroke-linecap="round" stroke-linejoin="round" stroke-width="0.8"/>
    <path id="Path_767" data-name="Path 767" d="M13.717,18.413a.585.585,0,0,1-.585.585H3.189a.585.585,0,0,1-.585-.585V11.979H13.717Z" transform="translate(-1.434 -5.545)" fill="none" stroke="#fff" stroke-linecap="round" stroke-linejoin="round" stroke-width="0.8"/>
    <path id="Path_768" data-name="Path 768" d="M8.854,7.813v9.359" transform="translate(-4.175 -3.718)" fill="none" stroke="#fff" stroke-linecap="round" stroke-linejoin="round" stroke-width="0.8"/>
    <path id="Path_769" data-name="Path 769" d="M16.146,17.171V7.813" transform="translate(-7.372 -3.718)" fill="none" stroke="#fff" stroke-linecap="round" stroke-linejoin="round" stroke-width="0.8"/>
    <path id="Path_770" data-name="Path 770" d="M16.131,2.474a9.542,9.542,0,0,1-2.589.971A9.642,9.642,0,0,1,14.513.856a1.145,1.145,0,1,1,1.619,1.619Z" transform="translate(-6.23 -0.52)" fill="none" stroke="#fff" stroke-linecap="round" stroke-linejoin="round" stroke-width="0.8"/>
    <path id="Path_771" data-name="Path 771" d="M6.585,2.474a9.542,9.542,0,0,0,2.589.971A9.642,9.642,0,0,0,8.2.856,1.145,1.145,0,1,0,6.585,2.474Z" transform="translate(-3.033 -0.52)" fill="none" stroke="#fff" stroke-linecap="round" stroke-linejoin="round" stroke-width="0.8"/>
  </g>
</svg>
