<svg xmlns="http://www.w3.org/2000/svg" width="32.785" height="32.779" viewBox="0 0 32.785 32.779">
  <g id="streamline-icon-accounting-coins-stack_25x25" data-name="streamline-icon-accounting-coins-stack@25x25" transform="translate(0.129 0.129)">
    <path id="Path_783" data-name="Path 783" d="M.525,3.258C.525,4.77,5.121,6,10.79,6S21.055,4.77,21.055,3.258,16.459.521,10.79.521.525,1.746.525,3.258Z" transform="translate(0.001)" fill="none" stroke="#ab9b8c" stroke-linecap="round" stroke-linejoin="round" stroke-width="1.3"/>
    <path id="Path_784" data-name="Path 784" d="M21.051,2.6V6.71c0,1.512-4.595,2.737-10.265,2.737S.521,8.223.521,6.71V2.6" transform="translate(0 0.654)" fill="none" stroke="#ab9b8c" stroke-linecap="round" stroke-linejoin="round" stroke-width="1.3"/>
    <path id="Path_785" data-name="Path 785" d="M21.051,5.729V9.835c0,1.512-4.595,2.737-10.265,2.737S.521,11.348.521,9.835V5.729" transform="translate(0 1.635)" fill="none" stroke="#ab9b8c" stroke-linecap="round" stroke-linejoin="round" stroke-width="1.3"/>
    <path id="Path_786" data-name="Path 786" d="M8.858,16.8c0,1.512,4.6,2.737,10.265,2.737S29.388,18.312,29.388,16.8s-4.6-2.737-10.265-2.737S8.858,15.288,8.858,16.8Z" transform="translate(2.617 4.251)" fill="none" stroke="#ab9b8c" stroke-linecap="round" stroke-linejoin="round" stroke-width="1.3"/>
    <path id="Path_787" data-name="Path 787" d="M29.384,16.146v4.106c0,1.512-4.595,2.737-10.265,2.737S8.854,21.764,8.854,20.252V16.146" transform="translate(2.616 4.905)" fill="none" stroke="#ab9b8c" stroke-linecap="round" stroke-linejoin="round" stroke-width="1.3"/>
    <path id="Path_788" data-name="Path 788" d="M29.384,19.271v4.106c0,1.512-4.595,2.737-10.265,2.737S8.854,24.889,8.854,23.377V19.271" transform="translate(2.616 5.886)" fill="none" stroke="#ab9b8c" stroke-linecap="round" stroke-linejoin="round" stroke-width="1.3"/>
    <path id="Path_789" data-name="Path 789" d="M21.051,8.854V12.96c0,1.512-4.595,2.737-10.265,2.737S.521,14.473.521,12.96V8.854" transform="translate(0 2.616)" fill="none" stroke="#ab9b8c" stroke-linecap="round" stroke-linejoin="round" stroke-width="1.3"/>
    <path id="Path_790" data-name="Path 790" d="M.521,11.979v4.106c0,1.512,4.6,2.737,10.265,2.737h.684" transform="translate(0 3.597)" fill="none" stroke="#ab9b8c" stroke-linecap="round" stroke-linejoin="round" stroke-width="1.3"/>
    <path id="Path_791" data-name="Path 791" d="M.521,15.1V19.21c0,1.512,4.6,2.737,10.265,2.737h.684" transform="translate(0 4.578)" fill="none" stroke="#ab9b8c" stroke-linecap="round" stroke-linejoin="round" stroke-width="1.3"/>
    <path id="Path_792" data-name="Path 792" d="M16.15,11.979v2.737" transform="translate(4.906 3.597)" fill="none" stroke="#ab9b8c" stroke-linecap="round" stroke-linejoin="round" stroke-width="1.3"/>
  </g>
</svg>
