<svg xmlns="http://www.w3.org/2000/svg" width="33.039" height="33.039" viewBox="0 0 33.039 33.039">
  <g id="streamline-icon-gift-box_25x25" data-name="streamline-icon-gift-box@25x25" transform="translate(0.65 0.65)">
    <path id="Path_766" data-name="Path 766" d="M32.259,11.952a1.38,1.38,0,0,1-1.38,1.38H1.9a1.38,1.38,0,0,1-1.38-1.38V9.192A1.38,1.38,0,0,1,1.9,7.813H30.879a1.38,1.38,0,0,1,1.38,1.38Z" transform="translate(-0.521 1.848)" fill="none" stroke="#000" stroke-linecap="round" stroke-linejoin="round" stroke-width="1.3"/>
    <path id="Path_767" data-name="Path 767" d="M28.823,27.159a1.38,1.38,0,0,1-1.38,1.38H3.984a1.38,1.38,0,0,1-1.38-1.38V11.979H28.823Z" transform="translate(0.156 3.201)" fill="none" stroke="#000" stroke-linecap="round" stroke-linejoin="round" stroke-width="1.3"/>
    <path id="Path_768" data-name="Path 768" d="M8.854,7.813V29.892" transform="translate(2.185 1.848)" fill="none" stroke="#000" stroke-linecap="round" stroke-linejoin="round" stroke-width="1.3"/>
    <path id="Path_769" data-name="Path 769" d="M16.146,29.892V7.813" transform="translate(4.553 1.848)" fill="none" stroke="#000" stroke-linecap="round" stroke-linejoin="round" stroke-width="1.3"/>
    <path id="Path_770" data-name="Path 770" d="M19.651,5.13C18.6,6.186,13.542,7.421,13.542,7.421s1.242-5.055,2.291-6.109A2.7,2.7,0,1,1,19.651,5.13Z" transform="translate(3.707 -0.52)" fill="none" stroke="#000" stroke-linecap="round" stroke-linejoin="round" stroke-width="1.3"/>
    <path id="Path_771" data-name="Path 771" d="M7.041,5.13C8.1,6.186,13.15,7.421,13.15,7.421s-1.242-5.055-2.291-6.109A2.7,2.7,0,1,0,7.04,5.13Z" transform="translate(1.339 -0.52)" fill="none" stroke="#000" stroke-linecap="round" stroke-linejoin="round" stroke-width="1.3"/>
  </g>
</svg>
